<?xml version="1.0" encoding="UTF-8"?>
<svg width="400" height="600" viewBox="0 0 400 600" xmlns="http://www.w3.org/2000/svg">

  <g id="shadow" transform="translate(90 522)"><ellipse cx="110" cy="34" rx="84" ry="18" fill="#0000001A"/></g>
  <g id="backpack" transform="translate(86 196) scale(0.62)"><path d="M 68 72 Q 130 24 192 72 L 192 190 Q 130 224 68 190 Z" fill="#2B6FD6" stroke="#6A2E31" stroke-width="4"/>
  <path d="M 192 72 Q 230 116 216 190 Q 184 214 150 208 Q 182 152 192 72 Z" fill="#3C7BD9" stroke="#6A2E31" stroke-width="4"/>
  <rect x="88" y="88" width="84" height="18" rx="9" fill="#1F4C98"/></g>
  <g id="leg_upper_left" transform="translate(140 300)"><rect x="18" y="8" width="44" height="128" rx="18" fill="#4E9F5A" stroke="#6A2E31" stroke-width="4"/></g>
  <g id="leg_lower_left" transform="translate(144 416)"><rect x="18" y="6" width="36" height="132" rx="18" fill="#2F7A3A" stroke="#6A2E31" stroke-width="4"/></g>
  <g id="shoe_left" transform="translate(108 526) scale(0.52)"><path d="M 22 68 Q 40 42 90 42 Q 122 44 138 60 L 136 82 Q 118 98 62 100 Q 18 98 14 80 Z" fill="#8B5A2B" stroke="#6A2E31" stroke-width="4"/>
  <path d="M 24 76 Q 70 88 130 82" fill="none" stroke="#2C5EA8" stroke-width="4" stroke-linecap="round"/>
  <path d="M 18 84 Q 74 104 140 92 L 140 100 Q 78 112 16 96 Z" fill="#FFFDF9" stroke="#6A2E31" stroke-width="3"/></g>
  <g id="leg_upper_right" transform="translate(200 300)"><rect x="18" y="8" width="44" height="128" rx="18" fill="#4E9F5A" stroke="#6A2E31" stroke-width="4"/></g>
  <g id="leg_lower_right" transform="translate(204 416)"><rect x="18" y="6" width="36" height="132" rx="18" fill="#2F7A3A" stroke="#6A2E31" stroke-width="4"/></g>
  <g id="shoe_right" transform="translate(180 526) scale(0.52)"><path d="M 22 68 Q 40 42 90 42 Q 122 44 138 60 L 136 82 Q 118 98 62 100 Q 18 98 14 80 Z" fill="#8B5A2B" stroke="#6A2E31" stroke-width="4"/>
  <path d="M 24 76 Q 70 88 130 82" fill="none" stroke="#2C5EA8" stroke-width="4" stroke-linecap="round"/>
  <path d="M 18 84 Q 74 104 140 92 L 140 100 Q 78 112 16 96 Z" fill="#FFFDF9" stroke="#6A2E31" stroke-width="3"/></g>
  <g id="arm_upper_left" transform="translate(100 214) rotate(6 38 14)"><rect x="24" y="8" width="28" height="118" rx="14" fill="#2E7D32" stroke="#6A2E31" stroke-width="4"/></g>
  <g id="arm_lower_left" transform="translate(92 324) rotate(6 40 14)"><rect x="24" y="8" width="28" height="98" rx="14" fill="#E7A279" stroke="#6A2E31" stroke-width="4"/>
  <circle cx="38" cy="122" r="16" fill="#E7A279" stroke="#6A2E31" stroke-width="4"/>
  <rect x="18" y="4" width="40" height="14" rx="7" fill="#2F7A3A" stroke="#6A2E31" stroke-width="3"/></g>
  <g id="arm_upper_right" transform="translate(224 214) rotate(-6 38 14)"><rect x="24" y="8" width="28" height="118" rx="14" fill="#2E7D32" stroke="#6A2E31" stroke-width="4"/></g>
  <g id="arm_lower_right" transform="translate(228 324) rotate(-6 40 14)"><rect x="24" y="8" width="28" height="98" rx="14" fill="#E7A279" stroke="#6A2E31" stroke-width="4"/>
  <circle cx="38" cy="122" r="16" fill="#E7A279" stroke="#6A2E31" stroke-width="4"/>
  <rect x="18" y="4" width="40" height="14" rx="7" fill="#2F7A3A" stroke="#6A2E31" stroke-width="3"/></g>
  <g id="torso" transform="translate(82 166)"><path d="M 60 30 Q 80 8 118 8 Q 156 8 176 30 L 190 210 Q 158 238 118 238 Q 78 238 46 210 Z" fill="#2E7D32" stroke="#6A2E31" stroke-width="4"/>
  <path d="M 82 82 Q 98 54 118 54 Q 138 54 154 82 L 164 206 Q 142 226 118 226 Q 94 226 72 206 Z" fill="#4E9F5A" stroke="#6A2E31" stroke-width="4"/>
  <rect x="96" y="94" width="44" height="62" rx="16" fill="#67AC71" stroke="#6A2E31" stroke-width="3"/>
  <rect x="76" y="82" width="18" height="82" rx="9" fill="#2F7A3A" stroke="#6A2E31" stroke-width="3"/>
  <rect x="142" y="82" width="18" height="82" rx="9" fill="#2F7A3A" stroke="#6A2E31" stroke-width="3"/></g>
  <g id="head" transform="translate(94 36)"><path d="M 58 74 Q 68 28 118 22 Q 168 28 178 76 Q 158 58 118 56 Q 80 58 58 74 Z" fill="#D6B25C" stroke="#6A2E31" stroke-width="4"/>
  <ellipse cx="118" cy="106" rx="60" ry="62" fill="#E7A279" stroke="#6A2E31" stroke-width="4"/>
  <ellipse cx="88" cy="132" rx="12" ry="8" fill="#EF8F79" opacity="0.55"/>
  <ellipse cx="148" cy="132" rx="12" ry="8" fill="#EF8F79" opacity="0.55"/></g>
  <g id="eyes" transform="translate(94 60)"><ellipse cx="88" cy="54" rx="12" ry="16" fill="white" stroke="#6A2E31" stroke-width="3"/>
  <ellipse cx="148" cy="54" rx="12" ry="16" fill="white" stroke="#6A2E31" stroke-width="3"/>
  <circle cx="88" cy="57" r="6" fill="#572628"/>
  <circle cx="148" cy="57" r="6" fill="#572628"/>
  <circle cx="91" cy="53" r="2" fill="white"/>
  <circle cx="151" cy="53" r="2" fill="white"/></g>
  <g id="mouth" transform="translate(94 120)"><path d="M 88 46 Q 118 74 148 46" fill="none" stroke="#572628" stroke-width="5" stroke-linecap="round"/></g>
  <g id="hat" transform="translate(64 -12) scale(0.84)"><path d="M 88 118 Q 112 48 176 44 Q 232 44 252 118 L 88 118 Z" fill="#3D9448" stroke="#6A2E31" stroke-width="4"/>
  <path d="M 124 118 Q 174 138 246 118 Q 210 148 124 134 Z" fill="#2D6F36" stroke="#6A2E31" stroke-width="3"/>
  <rect x="118" y="84" width="88" height="14" rx="7" fill="#D7C27A"/></g>

</svg>
