<?xml version="1.0" encoding="UTF-8"?>
<svg width="140" height="280" viewBox="0 0 140 280" xmlns="http://www.w3.org/2000/svg">
  <g id="arm_left">
    <path d="M84 34 C58 50, 48 78, 49 114 L53 216 C54 233, 65 244, 80 244 C95 244, 106 233, 107 216 L110 110 C111 81, 103 55, 84 34 Z" fill="#E7A279" stroke="#6A2E31" stroke-width="4" stroke-linejoin="round"/>
    <path d="M82 28 C69 28, 57 31, 46 37" fill="none" stroke="#F7DC29" stroke-width="14" stroke-linecap="round"/>
    <path d="M54 234 C56 248, 62 258, 72 262" fill="none" stroke="#6A2E31" stroke-width="4" stroke-linecap="round"/>
    <path d="M66 232 L63 260" fill="none" stroke="#6A2E31" stroke-width="3" stroke-linecap="round"/>
    <path d="M76 232 L76 262" fill="none" stroke="#6A2E31" stroke-width="3" stroke-linecap="round"/>
    <path d="M86 231 L90 259" fill="none" stroke="#6A2E31" stroke-width="3" stroke-linecap="round"/>
  </g>
</svg>