<?xml version="1.0" encoding="UTF-8"?>
<svg width="140" height="280" viewBox="0 0 140 280" xmlns="http://www.w3.org/2000/svg">
  <g id="arm_right">
    <path d="M56 34 C82 50, 92 78, 91 114 L87 216 C86 233, 75 244, 60 244 C45 244, 34 233, 33 216 L30 110 C29 81, 37 55, 56 34 Z" fill="#E7A279" stroke="#6A2E31" stroke-width="4" stroke-linejoin="round"/>
    <path d="M58 28 C71 28, 83 31, 94 37" fill="none" stroke="#F7DC29" stroke-width="14" stroke-linecap="round"/>
    <path d="M86 234 C84 248, 78 258, 68 262" fill="none" stroke="#6A2E31" stroke-width="4" stroke-linecap="round"/>
    <path d="M74 232 L77 260" fill="none" stroke="#6A2E31" stroke-width="3" stroke-linecap="round"/>
    <path d="M64 232 L64 262" fill="none" stroke="#6A2E31" stroke-width="3" stroke-linecap="round"/>
    <path d="M54 231 L50 259" fill="none" stroke="#6A2E31" stroke-width="3" stroke-linecap="round"/>
  </g>
</svg>