<?xml version="1.0" encoding="UTF-8"?>
<svg width="280" height="300" viewBox="0 0 280 300" xmlns="http://www.w3.org/2000/svg">
  <g id="torso">
    <path d="M70 72 C76 48, 102 34, 140 34 C178 34, 204 48, 210 72 L218 214 C220 243, 196 266, 167 266 L113 266 C84 266, 60 243, 62 214 Z" fill="#73E9CA" stroke="#6A2E31" stroke-width="4" stroke-linejoin="round"/>
    <path d="M81 70 L199 70 L191 118 C185 143, 166 160, 140 160 C114 160, 95 143, 89 118 Z" fill="#F7DC29" stroke="#6A2E31" stroke-width="4" stroke-linejoin="round"/>
    <path d="M98 74 L120 74 L124 210 L102 210 Z" fill="#1DBE90" stroke="#6A2E31" stroke-width="4" stroke-linejoin="round"/>
    <path d="M160 74 L182 74 L178 210 L156 210 Z" fill="#1DBE90" stroke="#6A2E31" stroke-width="4" stroke-linejoin="round"/>
    <rect x="122" y="101" width="36" height="78" rx="12" fill="#8AF1D7" stroke="#6A2E31" stroke-width="4"/>
    <circle cx="140" cy="148" r="4" fill="#6A2E31"/>
    <rect x="98" y="79" width="24" height="44" rx="8" fill="#73E9CA" stroke="#6A2E31" stroke-width="4"/>
    <rect x="158" y="79" width="24" height="44" rx="8" fill="#73E9CA" stroke="#6A2E31" stroke-width="4"/>
    <path d="M112 208 L168 208 L160 266 L120 266 Z" fill="#1DBE90" stroke="#6A2E31" stroke-width="4" stroke-linejoin="round"/>
  </g>
</svg>