<?xml version="1.0" encoding="UTF-8"?>
<svg width="260" height="260" viewBox="0 0 260 260" xmlns="http://www.w3.org/2000/svg">
  <g id="backpack">
    <path d="M77 74 C82 56, 98 45, 118 45 L142 45 C162 45, 178 56, 183 74 L193 138 C195 153, 184 166, 168 166 L92 166 C76 166, 65 153, 67 138 Z" fill="#17A984" stroke="#6A2E31" stroke-width="4" stroke-linejoin="round"/>
    <path d="M88 70 C88 57, 100 48, 114 48" fill="none" stroke="#0D7E66" stroke-width="8" stroke-linecap="round"/>
    <path d="M172 70 C172 57, 160 48, 146 48" fill="none" stroke="#0D7E66" stroke-width="8" stroke-linecap="round"/>
    <path d="M83 82 C63 98, 56 130, 59 176" fill="none" stroke="#0D7E66" stroke-width="10" stroke-linecap="round"/>
    <path d="M177 82 C197 98, 204 130, 201 176" fill="none" stroke="#0D7E66" stroke-width="10" stroke-linecap="round"/>
    <rect x="112" y="100" width="36" height="44" rx="8" fill="#73E9CA" stroke="#6A2E31" stroke-width="4"/>
  </g>
</svg>