<?xml version='1.0' encoding='utf-8'?>
<svg xmlns="http://www.w3.org/2000/svg" viewBox="0 0 200 250"><g class="b-arm"><path d="M 90 110 L 70 125 L 60 105" stroke="#ffdab9" stroke-width="14" stroke-linecap="round" stroke-linejoin="round" fill="none" /><path class="sleeve" d="M 90 110 L 70 125" stroke="#ffeb3b" stroke-width="15" stroke-linecap="round" stroke-linejoin="round" fill="none" /><circle cx="60" cy="105" r="10" fill="#ffdab9" /><path class="thumb" d="M 52.0 104.0 Q 60.0 109.0 68.0 104.0" stroke="#d8a688" stroke-width="1.5" fill="none" stroke-linecap="round" transform="rotate(-206.56505117707798 60.0 105.0)" /></g><g class="b-leg"><path d="M 100 150 L 125 170 L 150 180" stroke="#ffdab9" stroke-width="16" stroke-linecap="round" stroke-linejoin="round" fill="none" /><path class="shorts" d="M 100 150 L 125 170" stroke="#42a5f5" stroke-width="17" stroke-linecap="round" stroke-linejoin="round" fill="none" /><path class="shorts-pocket" d="M 100 150 L 125 170" stroke="#90caf9" stroke-width="1.5" stroke-dasharray="4, 10" stroke-linecap="round" fill="none" /><path class="shorts-seam" d="M 100 150 L 125 170" stroke="#fbc02d" stroke-width="1.5" stroke-dasharray="3, 22" stroke-linecap="round" fill="none" /><ellipse class="dirt" cx="133.25" cy="174.5" rx="2" ry="1.5" fill="#a1887f" opacity="0.6" transform="rotate(-68.19859051364818 133.25 174.5)" /><ellipse class="dirt" cx="138.25" cy="176.5" rx="1.5" ry="1" fill="#a1887f" opacity="0.6" transform="rotate(-68.19859051364818 138.25 176.5)" /><ellipse class="sole" cx="150.0" cy="183.0" rx="16.0" ry="9.0" fill="#ecf0f1" transform="rotate(-20 150 180)" /><path class="sole-pattern" d="M 135.0 182.0 L 165.0 182.0" stroke="#bdc3c7" stroke-width="1.5" stroke-dasharray="2,2" fill="none" transform="rotate(-20 150 180)" /><ellipse cx="150" cy="180" rx="15" ry="8" fill="#e53935" transform="rotate(-20 150 180)" /><path class="sneaker-stripe" d="M 139.0 178.0 L 157.0 182.0 L 161.0 179.0" stroke="#ffffff" stroke-width="2" stroke-linecap="round" stroke-linejoin="round" fill="none" transform="rotate(-20 150 180)" /><path class="shoelace" d="M 148.0 171.0 Q 145.0 168.0 142.0 171.0 M 142.0 171.0 Q 141.0 168.0 138.0 171.0" stroke="#ffffff" stroke-width="1.5" fill="none" stroke-linecap="round" transform="rotate(-20 150 180)" /></g><g class="torso"><ellipse cx="135.0" cy="110.0" rx="14" ry="24" fill="#4caf50" /><rect class="neck" x="92.0" y="78.0" width="16" height="25" rx="6" fill="#ffdab9" /><rect x="70" y="90" width="60" height="70" rx="25" fill="#42a5f5" /><path class="strap" d="M 85.0 85.0 Q 80.0 105.0 80.0 135.0" stroke="#2e7d32" stroke-width="6" fill="none" stroke-linecap="round" /><path class="strap" d="M 110.0 85.0 Q 108.0 105.0 105.0 135.0" stroke="#2e7d32" stroke-width="6" fill="none" stroke-linecap="round" /><rect x="70" y="90" width="60" height="40" rx="20" fill="#ffeb3b" /><rect class="waistband" x="68.0" y="130.0" width="64.0" height="10" rx="4" fill="#1976d2" /><path class="collar" d="M 90.0 90.0 Q 100.0 98.0 110.0 90.0" stroke="#fbc02d" stroke-width="3" fill="none" stroke-linecap="round" /><circle class="shirt-logo" cx="85.0" cy="110.0" r="6" fill="#ffb300" /><path class="shirt-wrinkle" d="M 75.0 100.0 Q 85.0 105.0 90.0 125.0" stroke="#fbc02d" stroke-width="1.5" fill="none" stroke-linecap="round" /></g><g class="head" transform="translate(100, 60)"><path class="hair" d="M 15 -10 Q 30 -5 24 12 Q 18 15 10 20 Q 20 5 10 -10 Z" fill="#8d6e63" /><circle cx="0" cy="0" r="25" fill="#ffdab9" /><path class="fringe" d="M -16 -15 Q -25 -20 -28 -12 Q -22 -14 -16 -15 Z" fill="#8d6e63" /><circle class="eye" cx="-5" cy="-5" r="3" fill="#2c3e50" /><circle class="eye" cx="-16" cy="-5" r="3" fill="#2c3e50" /><circle class="catchlight" cx="-5.5" cy="-6.5" r="1.2" fill="#ffffff" /><circle class="catchlight" cx="-16.5" cy="-6.5" r="1.2" fill="#ffffff" /><path class="eyebrow" d="M -1 -12 Q -5 -14 -8 -10" stroke="#5d4037" stroke-width="1.5" fill="none" stroke-linecap="round" /><path class="eyebrow" d="M -12 -12 Q -16 -14 -19 -10" stroke="#5d4037" stroke-width="1.5" fill="none" stroke-linecap="round" /><ellipse class="cheek" cx="1" cy="2" rx="3.5" ry="2" fill="#ff8a65" opacity="0.6" /><ellipse class="cheek" cx="-21" cy="2" rx="3.5" ry="2" fill="#ff8a65" opacity="0.6" /><circle class="freckle" cx="-18" cy="1" r="1.2" fill="#d8a688" opacity="0.7" /><circle class="freckle" cx="-23" cy="2" r="1.2" fill="#d8a688" opacity="0.7" /><path class="mouth" d="M -4 3 Q -10.5 12 -17 3 Q -10.5 16 -4 3 Z" fill="#c0392b" /><path class="teeth" d="M -5 4 Q -10.5 10 -16 4 Q -10.5 7 -5 4 Z" fill="#ffffff" /><path class="tongue" d="M -5 10 Q -10.5 16 -16 10 Z" fill="#f06292" /><ellipse class="nose" cx="-5" cy="-1" rx="4" ry="3.5" fill="#e6ad8a" /><ellipse class="ear" cx="12" cy="-1" rx="5" ry="7" fill="#ffdab9" /><path class="ear-inner" d="M 10 2 Q 13 -1 13 -4" stroke="#e6ad8a" stroke-width="1.5" fill="none" stroke-linecap="round" /><g transform="rotate(0, -25, -15)"><path d="M -18 -10 Q -5 -30 12 -10 Z" fill="#f5deb3" /><rect x="-32" y="-15" width="54" height="8" rx="4" fill="#d2b48c" /><path class="hat-band" d="M -16 -10 Q -3 -12 10 -10" stroke="#4caf50" stroke-width="4" fill="none" stroke-linecap="round" /></g></g><g class="f-leg"><path d="M 100 150 L 85 185 L 70 220" stroke="#ffdab9" stroke-width="16" stroke-linecap="round" stroke-linejoin="round" fill="none" /><path class="shorts" d="M 100 150 L 85 185" stroke="#42a5f5" stroke-width="17" stroke-linecap="round" stroke-linejoin="round" fill="none" /><path class="shorts-pocket" d="M 100 150 L 85 185" stroke="#90caf9" stroke-width="1.5" stroke-dasharray="4, 10" stroke-linecap="round" fill="none" /><path class="shorts-seam" d="M 100 150 L 85 185" stroke="#fbc02d" stroke-width="1.5" stroke-dasharray="3, 22" stroke-linecap="round" fill="none" /><ellipse class="dirt" cx="75.25" cy="200.75" rx="2" ry="1.5" fill="#a1887f" opacity="0.6" transform="rotate(23.198590513648185 75.25 200.75)" /><ellipse class="dirt" cx="80.25" cy="202.75" rx="1.5" ry="1" fill="#a1887f" opacity="0.6" transform="rotate(23.198590513648185 80.25 202.75)" /><ellipse class="sole" cx="70.0" cy="223.0" rx="16.0" ry="9.0" fill="#ecf0f1" transform="rotate(15 70 220)" /><path class="sole-pattern" d="M 55.0 222.0 L 85.0 222.0" stroke="#bdc3c7" stroke-width="1.5" stroke-dasharray="2,2" fill="none" transform="rotate(15 70 220)" /><ellipse cx="70" cy="220" rx="15" ry="8" fill="#e53935" transform="rotate(15 70 220)" /><path class="sneaker-stripe" d="M 59.0 218.0 L 77.0 222.0 L 81.0 219.0" stroke="#ffffff" stroke-width="2" stroke-linecap="round" stroke-linejoin="round" fill="none" transform="rotate(15 70 220)" /><path class="shoelace" d="M 68.0 211.0 Q 65.0 208.0 62.0 211.0 M 62.0 211.0 Q 61.0 208.0 58.0 211.0" stroke="#ffffff" stroke-width="1.5" fill="none" stroke-linecap="round" transform="rotate(15 70 220)" /></g><g class="f-arm"><path d="M 110 110 L 130 105 L 150 95" stroke="#ffdab9" stroke-width="14" stroke-linecap="round" stroke-linejoin="round" fill="none" /><path class="sleeve" d="M 110 110 L 130 105" stroke="#ffeb3b" stroke-width="15" stroke-linecap="round" stroke-linejoin="round" fill="none" /><path class="wristband" d="M 140.0 95.0 L 160.0 95.0" stroke="#ff5252" stroke-width="4" fill="none" stroke-linecap="round" transform="rotate(-116.56505117707799 150.0 95.0)" /><circle cx="150" cy="95" r="10" fill="#ffdab9" /><path class="thumb" d="M 142.0 94.0 Q 150.0 99.0 158.0 94.0" stroke="#d8a688" stroke-width="1.5" fill="none" stroke-linecap="round" transform="rotate(-116.56505117707799 150.0 95.0)" /></g></svg>