<?xml version='1.0' encoding='utf-8'?>
<svg xmlns="http://www.w3.org/2000/svg" viewBox="0 0 200 250"><g class="b-arm"><path d="M 85 120 L 65 130 L 50 120" stroke="#ffdab9" stroke-width="14" stroke-linecap="round" stroke-linejoin="round" fill="none" /><path class="sleeve" d="M 85 120 L 65 130" stroke="#ffeb3b" stroke-width="15" stroke-linecap="round" stroke-linejoin="round" fill="none" /><circle cx="50" cy="120" r="10" fill="#ffdab9" /><path class="thumb" d="M 42.0 119.0 Q 50.0 124.0 58.0 119.0" stroke="#d8a688" stroke-width="1.5" fill="none" stroke-linecap="round" transform="rotate(-236.30993247402023 50.0 120.0)" /></g><g class="b-leg"><path d="M 100 160 L 130 165 L 165 150" stroke="#ffdab9" stroke-width="16" stroke-linecap="round" stroke-linejoin="round" fill="none" /><path class="shorts" d="M 100 160 L 130 165" stroke="#42a5f5" stroke-width="17" stroke-linecap="round" stroke-linejoin="round" fill="none" /><path class="shorts-pocket" d="M 100 160 L 130 165" stroke="#90caf9" stroke-width="1.5" stroke-dasharray="4, 10" stroke-linecap="round" fill="none" /><path class="shorts-seam" d="M 100 160 L 130 165" stroke="#fbc02d" stroke-width="1.5" stroke-dasharray="3, 22" stroke-linecap="round" fill="none" /><ellipse class="dirt" cx="142.75" cy="158.25" rx="2" ry="1.5" fill="#a1887f" opacity="0.6" transform="rotate(-113.19859051364818 142.75 158.25)" /><ellipse class="dirt" cx="147.75" cy="160.25" rx="1.5" ry="1" fill="#a1887f" opacity="0.6" transform="rotate(-113.19859051364818 147.75 160.25)" /><ellipse class="sole" cx="165.0" cy="153.0" rx="16.0" ry="9.0" fill="#ecf0f1" transform="rotate(-40 165 150)" /><path class="sole-pattern" d="M 150.0 152.0 L 180.0 152.0" stroke="#bdc3c7" stroke-width="1.5" stroke-dasharray="2,2" fill="none" transform="rotate(-40 165 150)" /><ellipse cx="165" cy="150" rx="15" ry="8" fill="#e53935" transform="rotate(-40 165 150)" /><path class="sneaker-stripe" d="M 154.0 148.0 L 172.0 152.0 L 176.0 149.0" stroke="#ffffff" stroke-width="2" stroke-linecap="round" stroke-linejoin="round" fill="none" transform="rotate(-40 165 150)" /><path class="shoelace" d="M 163.0 141.0 Q 160.0 138.0 157.0 141.0 M 157.0 141.0 Q 156.0 138.0 153.0 141.0" stroke="#ffffff" stroke-width="1.5" fill="none" stroke-linecap="round" transform="rotate(-40 165 150)" /></g><g class="torso"><ellipse cx="135.0" cy="125.0" rx="14" ry="24" fill="#4caf50" /><rect class="neck" x="92.0" y="93.0" width="16" height="25" rx="6" fill="#ffdab9" /><rect x="70" y="105" width="60" height="70" rx="25" fill="#42a5f5" /><path class="strap" d="M 85.0 100.0 Q 80.0 120.0 80.0 150.0" stroke="#2e7d32" stroke-width="6" fill="none" stroke-linecap="round" /><path class="strap" d="M 110.0 100.0 Q 108.0 120.0 105.0 150.0" stroke="#2e7d32" stroke-width="6" fill="none" stroke-linecap="round" /><rect x="70" y="105" width="60" height="40" rx="20" fill="#ffeb3b" /><rect class="waistband" x="68.0" y="145.0" width="64.0" height="10" rx="4" fill="#1976d2" /><path class="collar" d="M 90.0 105.0 Q 100.0 113.0 110.0 105.0" stroke="#fbc02d" stroke-width="3" fill="none" stroke-linecap="round" /><circle class="shirt-logo" cx="85.0" cy="125.0" r="6" fill="#ffb300" /><path class="shirt-wrinkle" d="M 75.0 115.0 Q 85.0 120.0 90.0 140.0" stroke="#fbc02d" stroke-width="1.5" fill="none" stroke-linecap="round" /></g><g class="head" transform="translate(100, 70)"><path class="hair" d="M 15 -10 Q 30 -5 24 12 Q 18 15 10 20 Q 20 5 10 -10 Z" fill="#8d6e63" /><circle cx="0" cy="0" r="25" fill="#ffdab9" /><path class="fringe" d="M -16 -15 Q -25 -20 -28 -12 Q -22 -14 -16 -15 Z" fill="#8d6e63" /><circle class="eye" cx="-5" cy="-5" r="3" fill="#2c3e50" /><circle class="eye" cx="-16" cy="-5" r="3" fill="#2c3e50" /><circle class="catchlight" cx="-5.5" cy="-6.5" r="1.2" fill="#ffffff" /><circle class="catchlight" cx="-16.5" cy="-6.5" r="1.2" fill="#ffffff" /><path class="eyebrow" d="M -1 -12 Q -5 -14 -8 -10" stroke="#5d4037" stroke-width="1.5" fill="none" stroke-linecap="round" /><path class="eyebrow" d="M -12 -12 Q -16 -14 -19 -10" stroke="#5d4037" stroke-width="1.5" fill="none" stroke-linecap="round" /><ellipse class="cheek" cx="1" cy="2" rx="3.5" ry="2" fill="#ff8a65" opacity="0.6" /><ellipse class="cheek" cx="-21" cy="2" rx="3.5" ry="2" fill="#ff8a65" opacity="0.6" /><circle class="freckle" cx="-18" cy="1" r="1.2" fill="#d8a688" opacity="0.7" /><circle class="freckle" cx="-23" cy="2" r="1.2" fill="#d8a688" opacity="0.7" /><path class="mouth" d="M -4 3 Q -10.5 12 -17 3 Q -10.5 16 -4 3 Z" fill="#c0392b" /><path class="teeth" d="M -5 4 Q -10.5 10 -16 4 Q -10.5 7 -5 4 Z" fill="#ffffff" /><path class="tongue" d="M -5 10 Q -10.5 16 -16 10 Z" fill="#f06292" /><ellipse class="nose" cx="-5" cy="-1" rx="4" ry="3.5" fill="#e6ad8a" /><ellipse class="ear" cx="12" cy="-1" rx="5" ry="7" fill="#ffdab9" /><path class="ear-inner" d="M 10 2 Q 13 -1 13 -4" stroke="#e6ad8a" stroke-width="1.5" fill="none" stroke-linecap="round" /><g transform="rotate(-15, -25, -15)"><path d="M -18 -10 Q -5 -30 12 -10 Z" fill="#f5deb3" /><rect x="-32" y="-15" width="54" height="8" rx="4" fill="#d2b48c" /><path class="hat-band" d="M -16 -10 Q -3 -12 10 -10" stroke="#4caf50" stroke-width="4" fill="none" stroke-linecap="round" /></g></g><g class="f-leg"><path d="M 100 160 L 80 195 L 90 220" stroke="#ffdab9" stroke-width="16" stroke-linecap="round" stroke-linejoin="round" fill="none" /><path class="shorts" d="M 100 160 L 80 195" stroke="#42a5f5" stroke-width="17" stroke-linecap="round" stroke-linejoin="round" fill="none" /><path class="shorts-pocket" d="M 100 160 L 80 195" stroke="#90caf9" stroke-width="1.5" stroke-dasharray="4, 10" stroke-linecap="round" fill="none" /><path class="shorts-seam" d="M 100 160 L 80 195" stroke="#fbc02d" stroke-width="1.5" stroke-dasharray="3, 22" stroke-linecap="round" fill="none" /><ellipse class="dirt" cx="81.5" cy="206.25" rx="2" ry="1.5" fill="#a1887f" opacity="0.6" transform="rotate(-21.801409486351815 81.5 206.25)" /><ellipse class="dirt" cx="86.5" cy="208.25" rx="1.5" ry="1" fill="#a1887f" opacity="0.6" transform="rotate(-21.801409486351815 86.5 208.25)" /><ellipse class="sole" cx="90.0" cy="223.0" rx="16.0" ry="9.0" fill="#ecf0f1" transform="rotate(0 90 220)" /><path class="sole-pattern" d="M 75.0 222.0 L 105.0 222.0" stroke="#bdc3c7" stroke-width="1.5" stroke-dasharray="2,2" fill="none" transform="rotate(0 90 220)" /><ellipse cx="90" cy="220" rx="15" ry="8" fill="#e53935" transform="rotate(0 90 220)" /><path class="sneaker-stripe" d="M 79.0 218.0 L 97.0 222.0 L 101.0 219.0" stroke="#ffffff" stroke-width="2" stroke-linecap="round" stroke-linejoin="round" fill="none" transform="rotate(0 90 220)" /><path class="shoelace" d="M 88.0 211.0 Q 85.0 208.0 82.0 211.0 M 82.0 211.0 Q 81.0 208.0 78.0 211.0" stroke="#ffffff" stroke-width="1.5" fill="none" stroke-linecap="round" transform="rotate(0 90 220)" /></g><g class="f-arm"><path d="M 115 120 L 140 110 L 160 90" stroke="#ffdab9" stroke-width="14" stroke-linecap="round" stroke-linejoin="round" fill="none" /><path class="sleeve" d="M 115 120 L 140 110" stroke="#ffeb3b" stroke-width="15" stroke-linecap="round" stroke-linejoin="round" fill="none" /><path class="wristband" d="M 150.0 90.0 L 170.0 90.0" stroke="#ff5252" stroke-width="4" fill="none" stroke-linecap="round" transform="rotate(-135.0 160.0 90.0)" /><circle cx="160" cy="90" r="10" fill="#ffdab9" /><path class="thumb" d="M 152.0 89.0 Q 160.0 94.0 168.0 89.0" stroke="#d8a688" stroke-width="1.5" fill="none" stroke-linecap="round" transform="rotate(-135.0 160.0 90.0)" /></g></svg>