<?xml version='1.0' encoding='utf-8'?>
<svg xmlns="http://www.w3.org/2000/svg" viewBox="0 0 200 250"><g class="b-arm"><path d="M 95 115 L 80 140 L 70 165" stroke="#ffdab9" stroke-width="14" stroke-linecap="round" stroke-linejoin="round" fill="none" /><path class="sleeve" d="M 95 115 L 80 140" stroke="#ffeb3b" stroke-width="15" stroke-linecap="round" stroke-linejoin="round" fill="none" /><circle cx="70" cy="165" r="10" fill="#ffdab9" /><path class="thumb" d="M 62.0 164.0 Q 70.0 169.0 78.0 164.0" stroke="#d8a688" stroke-width="1.5" fill="none" stroke-linecap="round" transform="rotate(21.801409486351815 70.0 165.0)" /></g><g class="b-leg"><path d="M 100 150 L 70 150 L 75 180" stroke="#ffdab9" stroke-width="16" stroke-linecap="round" stroke-linejoin="round" fill="none" /><path class="shorts" d="M 100 150 L 70 150" stroke="#42a5f5" stroke-width="17" stroke-linecap="round" stroke-linejoin="round" fill="none" /><path class="shorts-pocket" d="M 100 150 L 70 150" stroke="#90caf9" stroke-width="1.5" stroke-dasharray="4, 10" stroke-linecap="round" fill="none" /><path class="shorts-seam" d="M 100 150 L 70 150" stroke="#fbc02d" stroke-width="1.5" stroke-dasharray="3, 22" stroke-linecap="round" fill="none" /><ellipse class="dirt" cx="69.25" cy="163.5" rx="2" ry="1.5" fill="#a1887f" opacity="0.6" transform="rotate(-9.462322208025611 69.25 163.5)" /><ellipse class="dirt" cx="74.25" cy="165.5" rx="1.5" ry="1" fill="#a1887f" opacity="0.6" transform="rotate(-9.462322208025611 74.25 165.5)" /><ellipse class="sole" cx="75.0" cy="183.0" rx="16.0" ry="9.0" fill="#ecf0f1" transform="rotate(30 75 180)" /><path class="sole-pattern" d="M 60.0 182.0 L 90.0 182.0" stroke="#bdc3c7" stroke-width="1.5" stroke-dasharray="2,2" fill="none" transform="rotate(30 75 180)" /><ellipse cx="75" cy="180" rx="15" ry="8" fill="#e53935" transform="rotate(30 75 180)" /><path class="sneaker-stripe" d="M 64.0 178.0 L 82.0 182.0 L 86.0 179.0" stroke="#ffffff" stroke-width="2" stroke-linecap="round" stroke-linejoin="round" fill="none" transform="rotate(30 75 180)" /><path class="shoelace" d="M 73.0 171.0 Q 70.0 168.0 67.0 171.0 M 67.0 171.0 Q 66.0 168.0 63.0 171.0" stroke="#ffffff" stroke-width="1.5" fill="none" stroke-linecap="round" transform="rotate(30 75 180)" /></g><g class="torso"><ellipse cx="135.0" cy="115.0" rx="14" ry="24" fill="#4caf50" /><rect class="neck" x="92.0" y="83.0" width="16" height="25" rx="6" fill="#ffdab9" /><rect x="70" y="95" width="60" height="70" rx="25" fill="#42a5f5" /><path class="strap" d="M 85.0 90.0 Q 80.0 110.0 80.0 140.0" stroke="#2e7d32" stroke-width="6" fill="none" stroke-linecap="round" /><path class="strap" d="M 110.0 90.0 Q 108.0 110.0 105.0 140.0" stroke="#2e7d32" stroke-width="6" fill="none" stroke-linecap="round" /><rect x="70" y="95" width="60" height="40" rx="20" fill="#ffeb3b" /><rect class="waistband" x="68.0" y="135.0" width="64.0" height="10" rx="4" fill="#1976d2" /><path class="collar" d="M 90.0 95.0 Q 100.0 103.0 110.0 95.0" stroke="#fbc02d" stroke-width="3" fill="none" stroke-linecap="round" /><circle class="shirt-logo" cx="85.0" cy="115.0" r="6" fill="#ffb300" /><path class="shirt-wrinkle" d="M 75.0 105.0 Q 85.0 110.0 90.0 130.0" stroke="#fbc02d" stroke-width="1.5" fill="none" stroke-linecap="round" /></g><g class="head" transform="translate(100, 55)"><path class="hair" d="M 15 -10 Q 30 -5 24 12 Q 18 15 10 20 Q 20 5 10 -10 Z" fill="#8d6e63" /><circle cx="0" cy="0" r="25" fill="#ffdab9" /><path class="fringe" d="M -16 -15 Q -25 -20 -28 -12 Q -22 -14 -16 -15 Z" fill="#8d6e63" /><circle class="eye" cx="-5" cy="-5" r="3" fill="#2c3e50" /><circle class="eye" cx="-16" cy="-5" r="3" fill="#2c3e50" /><circle class="catchlight" cx="-5.5" cy="-6.5" r="1.2" fill="#ffffff" /><circle class="catchlight" cx="-16.5" cy="-6.5" r="1.2" fill="#ffffff" /><path class="eyebrow" d="M -1 -12 Q -5 -14 -8 -10" stroke="#5d4037" stroke-width="1.5" fill="none" stroke-linecap="round" /><path class="eyebrow" d="M -12 -12 Q -16 -14 -19 -10" stroke="#5d4037" stroke-width="1.5" fill="none" stroke-linecap="round" /><ellipse class="cheek" cx="1" cy="2" rx="3.5" ry="2" fill="#ff8a65" opacity="0.6" /><ellipse class="cheek" cx="-21" cy="2" rx="3.5" ry="2" fill="#ff8a65" opacity="0.6" /><circle class="freckle" cx="-18" cy="1" r="1.2" fill="#d8a688" opacity="0.7" /><circle class="freckle" cx="-23" cy="2" r="1.2" fill="#d8a688" opacity="0.7" /><path class="mouth" d="M -4 3 Q -10.5 12 -17 3 Q -10.5 16 -4 3 Z" fill="#c0392b" /><path class="teeth" d="M -5 4 Q -10.5 10 -16 4 Q -10.5 7 -5 4 Z" fill="#ffffff" /><path class="tongue" d="M -5 10 Q -10.5 16 -16 10 Z" fill="#f06292" /><ellipse class="nose" cx="-5" cy="-1" rx="4" ry="3.5" fill="#e6ad8a" /><ellipse class="ear" cx="12" cy="-1" rx="5" ry="7" fill="#ffdab9" /><path class="ear-inner" d="M 10 2 Q 13 -1 13 -4" stroke="#e6ad8a" stroke-width="1.5" fill="none" stroke-linecap="round" /><g transform="rotate(0, -25, -15)"><path d="M -18 -10 Q -5 -30 12 -10 Z" fill="#f5deb3" /><rect x="-32" y="-15" width="54" height="8" rx="4" fill="#d2b48c" /><path class="hat-band" d="M -16 -10 Q -3 -12 10 -10" stroke="#4caf50" stroke-width="4" fill="none" stroke-linecap="round" /></g></g><g class="f-leg"><path d="M 100 150 L 100 185 L 110 220" stroke="#ffdab9" stroke-width="16" stroke-linecap="round" stroke-linejoin="round" fill="none" /><path class="shorts" d="M 100 150 L 100 185" stroke="#42a5f5" stroke-width="17" stroke-linecap="round" stroke-linejoin="round" fill="none" /><path class="shorts-pocket" d="M 100 150 L 100 185" stroke="#90caf9" stroke-width="1.5" stroke-dasharray="4, 10" stroke-linecap="round" fill="none" /><path class="shorts-seam" d="M 100 150 L 100 185" stroke="#fbc02d" stroke-width="1.5" stroke-dasharray="3, 22" stroke-linecap="round" fill="none" /><ellipse class="dirt" cx="101.5" cy="200.75" rx="2" ry="1.5" fill="#a1887f" opacity="0.6" transform="rotate(-15.945395900922847 101.5 200.75)" /><ellipse class="dirt" cx="106.5" cy="202.75" rx="1.5" ry="1" fill="#a1887f" opacity="0.6" transform="rotate(-15.945395900922847 106.5 202.75)" /><ellipse class="sole" cx="110.0" cy="223.0" rx="16.0" ry="9.0" fill="#ecf0f1" transform="rotate(0 110 220)" /><path class="sole-pattern" d="M 95.0 222.0 L 125.0 222.0" stroke="#bdc3c7" stroke-width="1.5" stroke-dasharray="2,2" fill="none" transform="rotate(0 110 220)" /><ellipse cx="110" cy="220" rx="15" ry="8" fill="#e53935" transform="rotate(0 110 220)" /><path class="sneaker-stripe" d="M 99.0 218.0 L 117.0 222.0 L 121.0 219.0" stroke="#ffffff" stroke-width="2" stroke-linecap="round" stroke-linejoin="round" fill="none" transform="rotate(0 110 220)" /><path class="shoelace" d="M 108.0 211.0 Q 105.0 208.0 102.0 211.0 M 102.0 211.0 Q 101.0 208.0 98.0 211.0" stroke="#ffffff" stroke-width="1.5" fill="none" stroke-linecap="round" transform="rotate(0 110 220)" /></g><g class="f-arm"><path d="M 105 115 L 125 125 L 130 150" stroke="#ffdab9" stroke-width="14" stroke-linecap="round" stroke-linejoin="round" fill="none" /><path class="sleeve" d="M 105 115 L 125 125" stroke="#ffeb3b" stroke-width="15" stroke-linecap="round" stroke-linejoin="round" fill="none" /><path class="wristband" d="M 120.0 150.0 L 140.0 150.0" stroke="#ff5252" stroke-width="4" fill="none" stroke-linecap="round" transform="rotate(-11.309932474020215 130.0 150.0)" /><circle cx="130" cy="150" r="10" fill="#ffdab9" /><path class="thumb" d="M 122.0 149.0 Q 130.0 154.0 138.0 149.0" stroke="#d8a688" stroke-width="1.5" fill="none" stroke-linecap="round" transform="rotate(-11.309932474020215 130.0 150.0)" /></g></svg>